<svg xmlns="http://www.w3.org/2000/svg" xmlns:xlink="http://www.w3.org/1999/xlink" width="510" height="510" viewBox="0 0 510 510"><defs><linearGradient id="linear-gradient" x1="-.016" x2=".996" y1=".5" y2=".5" gradientUnits="objectBoundingBox"><stop offset="0" stop-color="#fef056"/><stop offset=".521" stop-color="#f4d902"/><stop offset="1" stop-color="#fe9738"/></linearGradient><linearGradient id="linear-gradient-2" x1="-.38" x2="1.327" y1=".5" y2=".5" gradientUnits="objectBoundingBox"><stop offset="0" stop-color="#fbc56d"/><stop offset=".584" stop-color="#fe9738"/><stop offset=".998" stop-color="#fb2b3a"/></linearGradient><linearGradient id="linear-gradient-3" x1="-.47" x2="1.413" y1=".5" y2=".5" xlink:href="#linear-gradient-2"/><linearGradient id="linear-gradient-4" x1="-1.517" x2="1.427" y1=".5" y2=".5" xlink:href="#linear-gradient-2"/><linearGradient id="linear-gradient-5" x1="-.219" x2=".919" xlink:href="#linear-gradient"/><linearGradient id="linear-gradient-6" x1="-.736" x2="3.458" y1=".5" y2=".5" xlink:href="#linear-gradient-2"/><linearGradient id="linear-gradient-7" x1="-1.684" x2="1.662" y1=".5" y2=".5" gradientUnits="objectBoundingBox"><stop offset="0" stop-color="#fd8087"/><stop offset=".521" stop-color="#fb2b3a"/><stop offset="1" stop-color="#d90d80"/></linearGradient><linearGradient id="linear-gradient-8" x1="-.219" x2=".919" y1=".5" y2=".5" xlink:href="#linear-gradient-2"/><linearGradient id="linear-gradient-9" x1="-.214" x2="1.171" y1=".5" y2=".5" xlink:href="#linear-gradient-2"/><linearGradient id="linear-gradient-10" x1="-1.592" x2=".968" y1=".5" y2=".5" xlink:href="#linear-gradient-2"/><linearGradient id="linear-gradient-11" x1="-1.161" x2=".93" y1=".5" y2=".5" xlink:href="#linear-gradient-2"/></defs><g id="jupiter" transform="translate(0 0)"><g id="Group_18" data-name="Group 18"><g id="Group_16" data-name="Group 16"><circle id="Ellipse_12" cx="255" cy="255" r="255" fill="url(#linear-gradient)" data-name="Ellipse 12"/></g><g id="Group_17" data-name="Group 17"><path id="Path_15" fill="url(#linear-gradient-2)" d="M48.066,404.014a255.009,255.009,0,0,0,413.868,0C410.582,421.578,336.887,432.59,255,432.59S99.418,421.578,48.066,404.014Z" data-name="Path 15"/><path id="Path_16" fill="url(#linear-gradient-3)" d="M442.572,82.273a254.957,254.957,0,0,0-375.144,0C117.167,96.3,182.908,104.836,255,104.836S392.833,96.3,442.572,82.273Z" data-name="Path 16"/><path id="Path_17" fill="url(#linear-gradient-4)" d="M255,185.742a22.522,22.522,0,0,0,23.112,22.495c68.617-1.708,132.645-11,182.3-26.606a307.563,307.563,0,0,0,34.565-13.04,253.752,253.752,0,0,0-18.9-40.768,268.124,268.124,0,0,1-29.15,10.877c-45.8,14.391-105.511,22.97-170.016,24.555A22.482,22.482,0,0,0,255,185.742Z" data-name="Path 17"/></g><path id="Path_18" fill="url(#linear-gradient-5)" d="M255,0q-10.1,0-20.01.778a253.5,253.5,0,0,1,79.319,19.3c85.056,36.008,61.26,162.61-31.058,165.508q-13.936.438-28.251.441c-96.009,0-180.749-15.137-231.419-38.227A254.014,254.014,0,0,0,0,255a256.616,256.616,0,0,0,3.92,44.763C50.141,328.61,145.208,348.4,255,348.4c57.214,0,110.421-5.377,154.8-14.609,23.269-4.84,41.732,19.5,30.6,40.5q-.215.4-.431.809A28.066,28.066,0,0,1,421.96,389.2C374.673,400.8,316.5,407.09,255,407.09c-72.819,0-140.978-8.816-191.919-24.823a243.014,243.014,0,0,1-36.857-14.544,255.579,255.579,0,0,0,44.475,63.5C122.76,444.739,187.215,452.09,255,452.09h1.413c32.883-.05,37.54,47.673,5.2,53.651a254.655,254.655,0,0,1-26.628,3.482q9.9.768,20.01.778c140.833,0,255-114.167,255-255S395.833,0,255,0Z" data-name="Path 18"/><path id="Path_19" fill="url(#linear-gradient-6)" d="M183.333,404.313a22.5,22.5,0,0,0-20.023-22.35c-37.376-4.162-71.535-10.894-100.229-19.911-22.689-7.13-38.007-14.445-48.167-20.962a254.292,254.292,0,0,0,33.611,63.554l0,0a578.933,578.933,0,0,0,109.733,23.009c13.361,1.492,25.071-9.9,25.071-23.343Z" data-name="Path 19"/><path id="Path_20" fill="url(#linear-gradient-7)" d="M162.2,391.9q-23.943-2.666-45.67-6.629a12.784,12.784,0,0,0-4.748,25.123c15.711,3.079,31.678,5.545,47.586,7.322a11.192,11.192,0,0,0,1.252.07h0a12.225,12.225,0,0,0,8.786-3.936,13.906,13.906,0,0,0,3.923-9.54A12.488,12.488,0,0,0,162.2,391.9Z" data-name="Path 20"/><path id="Path_21" fill="url(#linear-gradient-8)" d="M461.934,404.014C410.582,421.578,336.887,432.59,255,432.59S99.426,421.58,48.074,404.017A255.851,255.851,0,0,0,70.7,431.227C122.76,444.739,187.215,452.09,255,452.09h1.413c32.883-.05,37.54,47.673,5.2,53.651a254.915,254.915,0,0,1-26.628,3.482q9.9.768,20.01.778A254.652,254.652,0,0,0,461.934,404.014Z" data-name="Path 21"/><path id="Path_22" fill="url(#linear-gradient-9)" d="M509.689,242.44a254.68,254.68,0,0,0-7.15-48.844c-9.51,7.681-26.495,17.141-55.621,26.293C395.977,235.9,327.819,244.713,255,244.713S114.023,235.9,63.082,219.89C33.959,210.738,16.975,201.28,7.465,193.6A254.627,254.627,0,0,0,.323,242.446c15.571,8.561,32.988,15.257,49.269,20.373C81.981,273,120.49,280.486,162.4,284.94A21.954,21.954,0,0,1,182,306.782a21.947,21.947,0,0,0,20.776,21.942c17.118.882,34.568,1.334,52.224,1.334,85.861,0,166.919-10.612,228.242-29.882,7.893-2.48,16.023-5.317,24.121-8.492A257.11,257.11,0,0,0,510,255q0-6.318-.311-12.56Z" data-name="Path 22"/><path id="Path_23" fill="url(#linear-gradient-10)" d="M446.919,138.7c-29.48,9.264-64.732,16.114-103.31,20.246-14.212,15.4-34.618,25.828-60.358,26.637q-13.932.438-28.243.441a22.519,22.519,0,0,0,23.1,22.213c68.617-1.708,132.645-11,182.3-26.606a307.563,307.563,0,0,0,34.565-13.04,253.752,253.752,0,0,0-18.9-40.768,268.489,268.489,0,0,1-29.15,10.877Z" data-name="Path 23"/><path id="Path_24" fill="url(#linear-gradient-11)" d="M235.012.78a253.5,253.5,0,0,1,79.3,19.3c35.74,15.13,52.254,46.256,52.548,77.478a561.807,561.807,0,0,0,75.716-15.28A254.3,254.3,0,0,0,255,0q-10.091,0-19.988.78Z" data-name="Path 24"/></g></g></svg>