<svg xmlns="http://www.w3.org/2000/svg" xmlns:xlink="http://www.w3.org/1999/xlink" width="148.834" height="148.835" viewBox="0 0 148.834 148.835">
  <defs>
    <linearGradient id="linear-gradient" y1="0.5" x2="1" y2="0.5" gradientUnits="objectBoundingBox">
      <stop offset="0" stop-color="#edf8ff"/>
      <stop offset="0.521" stop-color="#daeeff"/>
      <stop offset="1" stop-color="#b5dcff"/>
    </linearGradient>
    <linearGradient id="linear-gradient-2" x1="-1.286" y1="0.5" x2="0.466" y2="0.5" xlink:href="#linear-gradient"/>
    <linearGradient id="linear-gradient-3" x1="-2.314" y1="0.5" x2="2.57" y2="0.5" xlink:href="#linear-gradient"/>
    <linearGradient id="linear-gradient-4" x1="-3.837" y1="0.5" x2="1.047" y2="0.5" xlink:href="#linear-gradient"/>
  </defs>
  <g id="Group_8" data-name="Group 8" transform="matrix(0.998, -0.07, 0.07, 0.998, -395.5, -334.075)">
    <circle id="Ellipse_8" data-name="Ellipse 8" cx="69.723" cy="69.723" r="69.723" transform="translate(370.554 370.554)" fill="url(#linear-gradient)"/>
    <g id="Group_7" data-name="Group 7">
      <path id="Path_13" data-name="Path 13" d="M440.277,370.553a70.119,70.119,0,0,0-12.506,1.14A69.7,69.7,0,0,1,477.7,471.3a22.75,22.75,0,1,0-40.418,18.582,11.682,11.682,0,0,1-6.756,18.422q-1.368.306-2.757.558a69.719,69.719,0,1,0,12.505-138.306Z" fill="url(#linear-gradient-2)"/>
      <circle id="Ellipse_9" data-name="Ellipse 9" cx="14.75" cy="14.75" r="14.75" transform="translate(390.271 424)" fill="url(#linear-gradient-3)"/>
      <circle id="Ellipse_10" data-name="Ellipse 10" cx="14.75" cy="14.75" r="14.75" transform="translate(435.195 394.5)" fill="url(#linear-gradient-4)"/>
    </g>
  </g>
</svg>
