<svg height="512" viewBox="0 0 74 74" width="512" xmlns="http://www.w3.org/2000/svg"><g id="color_line" data-name="color line"><path d="m26.419 51.693v5a1.016 1.016 0 0 1 -1.019 1.012h-9.825a1.016 1.016 0 0 1 -1.016-1.016v-7.2z" fill="#eeefee"/><path d="m42.93 51.693v5a1.016 1.016 0 0 1 -1.016 1.016h-9.828a1.016 1.016 0 0 1 -1.016-1.016v-5z" fill="#eeefee"/><path d="m59.368 49.488v7.2a1.016 1.016 0 0 1 -1.016 1.016h-9.827a1.016 1.016 0 0 1 -1.016-1.016v-5z" fill="#eeefee"/><path d="m26.42 51.69v5a1.024 1.024 0 0 1 -1.02 1.02h-9.82a1.018 1.018 0 0 1 -1.02-1.02v-1.08h8.66a1.007 1.007 0 0 0 1.01-1.01v-3.32z" fill="#e1e6e9"/><path d="m42.93 51.69v5a1.024 1.024 0 0 1 -1.02 1.02h-9.82a1.024 1.024 0 0 1 -1.02-1.02v-1.08h8.66a1.007 1.007 0 0 0 1.01-1.01v-2.91z" fill="#e1e6e9"/><path d="m59.37 49.49v7.2a1.024 1.024 0 0 1 -1.02 1.02h-9.82a1.018 1.018 0 0 1 -1.02-1.02v-1.08h8.65a1.009 1.009 0 0 0 1.02-1.01v-4.7z" fill="#e1e6e9"/><path d="m16.078 57.705a4.709 4.709 0 0 0 -.318 1.7c0 2.612 2.118 9.906 4.73 9.906s4.73-7.294 4.73-9.906a4.709 4.709 0 0 0 -.318-1.7z" fill="#fcd462"/><path d="m17.461 57.705c0 1.677 1.357 6.336 3.028 6.336s3.025-4.659 3.028-6.336z" fill="#fe7058"/><path d="m32.588 57.705a4.709 4.709 0 0 0 -.318 1.7c0 2.612 2.118 9.906 4.73 9.906s4.73-7.294 4.73-9.906a4.709 4.709 0 0 0 -.318-1.7z" fill="#fcd462"/><path d="m33.972 57.705c0 1.677 1.357 6.336 3.028 6.336s3.025-4.659 3.028-6.336z" fill="#fe7058"/><path d="m49.1 57.705a4.709 4.709 0 0 0 -.318 1.7c0 2.612 2.118 9.906 4.73 9.906s4.73-7.294 4.73-9.906a4.709 4.709 0 0 0 -.318-1.7z" fill="#fcd462"/><path d="m25.22 59.4c0 2.61-2.12 9.91-4.73 9.91-.83 0-1.6-.73-2.28-1.81a1.471 1.471 0 0 0 .58.12c2.61 0 4.73-7.29 4.73-9.91h1.38a4.7 4.7 0 0 1 .32 1.69z" fill="#f7be56"/><path d="m41.73 59.4c0 2.61-2.12 9.91-4.73 9.91-.82 0-1.6-.73-2.27-1.81a1.459 1.459 0 0 0 .57.12c2.61 0 4.73-7.29 4.73-9.91h1.38a4.7 4.7 0 0 1 .32 1.69z" fill="#f7be56"/><path d="m58.24 59.4c0 2.61-2.12 9.91-4.73 9.91-.83 0-1.6-.73-2.28-1.81a1.471 1.471 0 0 0 .58.12c2.61 0 4.73-7.29 4.73-9.91h1.38a4.5 4.5 0 0 1 .32 1.69z" fill="#f7be56"/><path d="m50.483 57.705c0 1.677 1.357 6.336 3.028 6.336s3.025-4.659 3.028-6.336z" fill="#fe7058"/><path d="m20.489 69.807c-3.118 0-5.23-7.812-5.23-10.406a5.214 5.214 0 0 1 .352-1.875.5.5 0 0 1 .467-.321h8.822a.5.5 0 0 1 .467.32 5.2 5.2 0 0 1 .352 1.875c0 2.6-2.113 10.407-5.23 10.407zm-4.055-11.6a4.165 4.165 0 0 0 -.176 1.2c0 2.8 2.213 9.406 4.23 9.406s4.229-6.6 4.229-9.406a4.15 4.15 0 0 0 -.176-1.2z" fill="#323c6b"/><path d="m37 69.807c-3.117 0-5.229-7.812-5.229-10.406a5.2 5.2 0 0 1 .352-1.875.5.5 0 0 1 .467-.32h8.822a.5.5 0 0 1 .467.32 5.2 5.2 0 0 1 .352 1.875c-.002 2.599-2.114 10.406-5.231 10.406zm-4.054-11.6a4.15 4.15 0 0 0 -.176 1.2c0 2.8 2.212 9.406 4.229 9.406s4.229-6.6 4.229-9.406a4.15 4.15 0 0 0 -.176-1.2z" fill="#323c6b"/><path d="m53.511 69.807c-3.117 0-5.229-7.812-5.229-10.406a5.2 5.2 0 0 1 .352-1.875.5.5 0 0 1 .467-.32h8.823a.5.5 0 0 1 .467.321 5.214 5.214 0 0 1 .352 1.875c-.002 2.598-2.114 10.405-5.232 10.405zm-4.054-11.6a4.15 4.15 0 0 0 -.176 1.2c0 2.8 2.212 9.406 4.229 9.406s4.23-6.6 4.23-9.406a4.165 4.165 0 0 0 -.176-1.2z" fill="#323c6b"/><path d="m25.4 58.206h-9.825a1.517 1.517 0 0 1 -1.516-1.516v-7.2a.5.5 0 0 1 .181-.384.494.494 0 0 1 .411-.106l11.86 2.2a.5.5 0 0 1 .408.492v5a1.518 1.518 0 0 1 -1.519 1.514zm-10.34-8.117v6.6a.516.516 0 0 0 .516.516h9.824a.517.517 0 0 0 .517-.516v-4.581z" fill="#323c6b"/><path d="m41.914 58.206h-9.828a1.517 1.517 0 0 1 -1.516-1.516v-5a.5.5 0 0 1 .5-.5h11.86a.5.5 0 0 1 .5.5v5a1.517 1.517 0 0 1 -1.516 1.516zm-10.344-6.013v4.5a.516.516 0 0 0 .516.516h9.828a.516.516 0 0 0 .516-.516v-4.5z" fill="#323c6b"/><path d="m58.353 58.206h-9.828a1.518 1.518 0 0 1 -1.517-1.516v-5a.5.5 0 0 1 .408-.492l11.86-2.198a.494.494 0 0 1 .411.107.5.5 0 0 1 .181.384v7.2a1.517 1.517 0 0 1 -1.515 1.515zm-10.344-6.1v4.581a.517.517 0 0 0 .517.516h9.827a.516.516 0 0 0 .516-.516v-6.6z" fill="#323c6b"/><path d="m71 38.61a30.088 30.088 0 0 1 -16.89 13.08h-34.22a30.088 30.088 0 0 1 -16.89-13.08z" fill="#fe7058"/><path d="m71 38.61a30.088 30.088 0 0 1 -16.89 13.08h-3.92a30.089 30.089 0 0 0 16.89-13.08z" fill="#ea6453"/><path d="m71 38.61h-68a29.564 29.564 0 0 1 7.81-8.51h52.38a29.564 29.564 0 0 1 7.81 8.51z" fill="#bbbbcd"/><path d="m71 38.61h-3.42a29.566 29.566 0 0 0 -7.81-8.51h3.42a29.564 29.564 0 0 1 7.81 8.51z" fill="#9297ab"/><path d="m10.85 30.1a26.174 26.174 0 0 1 52.325 0z" fill="#eeefee"/><path d="m63.18 30.1h-3.1a26.171 26.171 0 0 0 -40.13-19.08 26.174 26.174 0 0 1 43.23 19.08z" fill="#e1e6e9"/><g fill="#323c6b"><path d="m52.887 16.125a.5.5 0 0 1 -.358-.152c-.2-.207-.407-.411-.618-.606a.5.5 0 0 1 .68-.733c.225.208.442.424.655.644a.5.5 0 0 1 -.358.848z"/><path d="m49.688 13.125a.5.5 0 0 1 -.3-.1 20.767 20.767 0 0 0 -10.08-3.971.5.5 0 1 1 .111-.994 21.785 21.785 0 0 1 10.566 4.163.5.5 0 0 1 -.3.9z"/><path d="m71 39.11h-68a.5.5 0 0 1 -.428-.759 30.056 30.056 0 0 1 7.94-8.653.5.5 0 0 1 .3-.1h52.38a.5.5 0 0 1 .3.1 30.044 30.044 0 0 1 7.942 8.653.5.5 0 0 1 -.434.759zm-67.1-1h66.2a29.081 29.081 0 0 0 -7.071-7.51h-52.054a29.076 29.076 0 0 0 -7.075 7.51z"/><path d="m54.11 52.19h-34.22a.491.491 0 0 1 -.119-.015 30.884 30.884 0 0 1 -17.2-13.307.5.5 0 0 1 .429-.758h68a.5.5 0 0 1 .428.759 30.884 30.884 0 0 1 -17.2 13.307.491.491 0 0 1 -.118.014zm-34.156-1h34.092a29.923 29.923 0 0 0 16.054-12.08h-66.2a29.854 29.854 0 0 0 16.054 12.08z"/><path d="m63.175 30.6h-52.324a.5.5 0 0 1 -.5-.514 26.674 26.674 0 0 1 53.324 0 .5.5 0 0 1 -.5.514zm-51.8-1h51.28a25.674 25.674 0 0 0 -51.285 0z"/><path d="m66.605 48.75a.5.5 0 0 1 -.32-.883 31.956 31.956 0 0 0 6.488-7.385.5.5 0 1 1 .844.536 32.939 32.939 0 0 1 -6.691 7.615.494.494 0 0 1 -.321.117z"/><path d="m63.828 50.833a.5.5 0 0 1 -.28-.915l.486-.329a.5.5 0 0 1 .574.819l-.5.338a.5.5 0 0 1 -.28.087z"/><path d="m11.589 17.083a.5.5 0 0 1 -.437-.744l.089-.166c.047-.087.093-.174.143-.26a.5.5 0 1 1 .863.506c-.043.073-.082.147-.121.222l-.1.186a.5.5 0 0 1 -.437.256z"/><path d="m13.207 14.5a.5.5 0 0 1 -.407-.79 29.016 29.016 0 0 1 6.993-7 .5.5 0 1 1 .58.814 28.035 28.035 0 0 0 -6.759 6.762.5.5 0 0 1 -.407.214z"/></g><path d="m22.407 33.566a.65.65 0 1 1 0-1.3l8.789-.018a.65.65 0 1 1 0 1.3z" fill="#fff"/><path d="m33.915 33.534a.65.65 0 0 1 0-1.3h.511a.65.65 0 0 1 0 1.3z" fill="#fff"/></g></svg>